<?xml version="1.0" encoding="UTF-8"?>
<svg version="1.1" xmlns="http://www.w3.org/2000/svg" width="936" height="216">
<path d="M0 0 C0.495 0.99 0.495 0.99 1 2 C2.99510193 2.6811848 4.99596217 3.34557138 7 4 C24.27400689 13.22472853 36.83378503 27.94320244 43.1875 46.4609375 C45.20094912 53.40437602 46.32329857 60.07576718 47 67.25 C48.3215524 81.12045266 52.93617285 91.31884882 63.71484375 100.39453125 C74.91574958 108.2638856 87.72825567 109.58439978 100.98828125 107.5390625 C112.20354394 104.49824167 121.11771957 97.71574674 127.3125 87.92578125 C133.09145706 77.11148292 133.64143167 64.93066586 130.4375 53.1875 C126.78804238 42.6488908 118.84985671 33.93047657 109 28.6875 C98.19494332 23.84600345 84.55568607 22.91834426 73.296875 26.9609375 C65.54876978 30.46603272 59.16278641 35.18150333 53 41 C49.4329963 36.61866426 46.93189086 31.60304794 44.22851562 26.66796875 C43.6494043 25.62189453 43.6494043 25.62189453 43.05859375 24.5546875 C42.71111084 23.92030762 42.36362793 23.28592773 42.00561523 22.63232422 C40.97868744 20.82459298 40.97868744 20.82459298 39 19 C38.9765625 17.18359375 38.9765625 17.18359375 40 15 C42.0957345 13.18468068 44.10285369 11.62307919 46.375 10.0625 C47.00841309 9.62156006 47.64182617 9.18062012 48.29443359 8.72631836 C64.6627563 -2.41180407 84.09829784 -6.11304707 103.5546875 -2.7890625 C122.17651039 1.47579943 139.41128465 11.79278262 150 28 C160.29214222 45.61811353 164.51031982 63.76322114 160 84 C157.24257949 94.3264796 152.86431064 102.75742226 146 111 C145.46890625 111.70382813 144.9378125 112.40765625 144.390625 113.1328125 C133.59656151 126.75898176 115.84550661 134.45279638 99 137 C84.27763098 138.52821794 70.14474104 135.95178111 57 129 C56.21496094 128.59265625 55.42992187 128.1853125 54.62109375 127.765625 C42.66606368 121.10523266 32.84282638 111.48877059 26.875 99.1875 C26.54113281 98.52685547 26.20726562 97.86621094 25.86328125 97.18554688 C20.92861574 87.19043026 19.11798072 77.40621211 17.62695312 66.4140625 C15.59809326 52.56009053 11.26048179 41.61904299 0.125 32.625 C-10.18857531 25.42995635 -21.74642372 23.89507064 -34 25 C-44.42851327 27.24200224 -53.9290516 33.18134407 -60 42 C-66.36297408 52.81495594 -68.6984462 65.09380619 -65.8125 77.4375 C-62.26608792 89.35472258 -56.58503455 97.06372261 -45.84375 103.48828125 C-36.40180362 108.50755769 -25.6734269 109.75362249 -15.1796875 107.35546875 C-13.0743192 106.65020511 -11.05185521 105.84436685 -9 105 C-8.37351562 104.86980469 -7.74703125 104.73960937 -7.1015625 104.60546875 C-0.10254512 102.58902322 6.09572828 97.22067635 11 92 C11.66 92 12.32 92 13 92 C14.64954167 95.10220977 16.2939881 98.20709211 17.9375 101.3125 C18.40607422 102.19357422 18.87464844 103.07464844 19.35742188 103.98242188 C19.80537109 104.82998047 20.25332031 105.67753906 20.71484375 106.55078125 C21.33540649 107.72120972 21.33540649 107.72120972 21.96850586 108.9152832 C23 111 23 111 24 114 C24.66 114.33 25.32 114.66 26 115 C22.61385488 119.39061727 19.22776049 122.6117048 14.5 125.5625 C13.89051514 125.94672119 13.28103027 126.33094238 12.65307617 126.72680664 C-3.74931365 136.75201844 -23.38799757 139.94423875 -42.125 135.5 C-59.59098916 130.87664993 -74.76527833 119.84596989 -85 105 C-85.67435677 103.33642999 -86.34291113 101.67046593 -87 100 C-87.66 99.67 -88.32 99.34 -89 99 C-90.11366827 96.30001909 -91.11483328 93.63268709 -92.0625 90.875 C-92.33126953 90.12734375 -92.60003906 89.3796875 -92.87695312 88.609375 C-98.86351506 71.4707887 -97.10564114 52.83408638 -89.62182617 36.48388672 C-81.48071626 19.70923349 -67.61698122 6.85515389 -50.1875 0.1875 C-34.05901693 -5.1301609 -16.20781455 -5.56228775 0 0 Z " fill="#000000" transform="translate(235,67)"/>
<path d="M0 0 C1.52863426 -0.0129007 1.52863426 -0.0129007 3.08815002 -0.02606201 C4.20558594 -0.03032196 5.32302185 -0.03458191 6.47431946 -0.03897095 C7.6518428 -0.04714844 8.82936615 -0.05532593 10.04257202 -0.06375122 C13.94859972 -0.08861137 17.85461981 -0.10527772 21.76069641 -0.11953735 C23.10739969 -0.12489882 24.4541029 -0.13027633 25.80080605 -0.13566971 C31.40514415 -0.15729553 37.00947943 -0.17602996 42.61384869 -0.1872921 C50.63389262 -0.20351673 58.65345098 -0.23666091 66.67331189 -0.29369295 C72.31846128 -0.33246225 77.9634812 -0.35193312 83.60876018 -0.35721266 C86.97720457 -0.36085729 90.3451307 -0.37278169 93.7134304 -0.4053154 C97.47654952 -0.43693285 101.23844614 -0.43700772 105.00166321 -0.42959595 C106.10897797 -0.44600128 107.21629272 -0.46240662 108.35716248 -0.47930908 C115.08199314 -0.42516565 119.97546694 0.52346421 125.06147766 5.15390015 C127.82243863 9.50450531 128.80247597 13.46842186 128.01460266 18.52108765 C125.99860186 24.08987675 122.02656052 28.68908513 118.4433136 33.34091187 C116.30647217 36.14447802 114.28232523 39.02491578 112.24897766 41.90390015 C106.77947874 49.57443304 101.25517443 57.20549045 95.7348175 64.83944702 C93.00884627 68.60983034 90.28526232 72.38193708 87.56147766 76.15390015 C86.47815622 77.65390873 85.39482287 79.15390873 84.31147766 80.65390015 C83.77522766 81.39640015 83.23897766 82.13890015 82.68647766 82.90390015 C64.81147766 107.65390015 64.81147766 107.65390015 63.18598938 109.90438843 C62.10404587 111.40258914 61.02233964 112.90096123 59.94087219 114.39950562 C57.21320678 118.17848441 54.48132441 121.95428128 51.74116516 125.72421265 C50.91068665 126.86890015 50.91068665 126.86890015 50.06343079 128.03671265 C49.04030288 129.44673767 48.01576785 130.85574382 46.98921204 132.26327515 C43.35838823 137.27197483 39.84501842 142.35753463 36.34516907 147.45809937 C35.83613541 148.19926498 35.32710175 148.9404306 34.80264282 149.70405579 C33.55523152 151.52042641 32.30818647 153.33704731 31.06147766 155.15390015 C32.05626633 155.14945892 33.05105499 155.1450177 34.07598877 155.14044189 C43.47678706 155.09979913 52.8775674 155.06986945 62.2784338 155.0502758 C67.11085628 155.03986371 71.94320751 155.02575174 76.77558899 155.00302124 C81.44401304 154.98120079 86.11236879 154.96931218 90.78083992 154.96414566 C92.55691667 154.96046637 94.33298993 154.95328184 96.1090374 154.94244003 C98.6075062 154.9278026 101.1056971 154.92592728 103.60420227 154.92684937 C104.32925461 154.91965881 105.05430695 154.91246826 105.80133057 154.90505981 C112.1939227 154.93038748 118.53474162 155.54108991 123.99897766 159.02890015 C127.2831636 162.41260687 128.373128 165.26554525 128.49897766 169.96640015 C128.41087886 174.55431487 127.33904152 177.19258359 124.54585266 180.77890015 C121.26161458 183.82114174 118.2703192 184.40468535 113.87535095 184.41459656 C112.30245552 184.42522377 112.30245552 184.42522377 110.69778442 184.43606567 C109.55274948 184.43358826 108.40771454 184.43111084 107.22798157 184.42855835 C106.0178389 184.43366928 104.80769623 184.43878021 103.56088257 184.44404602 C100.24462418 184.45556523 96.92861572 184.45801539 93.61235476 184.45548272 C90.84156929 184.45441234 88.07080683 184.45929819 85.3000263 184.46408814 C78.76118266 184.47518143 72.22239647 184.47562204 65.68354797 184.46957397 C58.94430867 184.46353624 52.20527825 184.47584038 45.46607459 184.49714404 C39.67485177 184.51477594 33.88369534 184.52075883 28.09244668 184.5175063 C24.63593579 184.5156955 21.17957384 184.51830901 17.72308731 184.53222084 C13.86656288 184.54716193 10.01030311 184.53781512 6.15376282 184.5262146 C5.01277634 184.53385834 3.87178986 184.54150208 2.69622803 184.54937744 C-2.90403675 184.51211635 -7.16003647 184.430786 -11.93852234 181.15390015 C-14.83274657 177.95502073 -16.23761107 175.22369229 -16.62602234 170.96640015 C-16.05841255 160.61182151 -6.03920014 151.17680791 0.01069641 143.2046814 C4.07404056 137.83576323 7.96664406 132.34896692 11.85688782 126.85409546 C13.85591607 124.03260524 15.86454713 121.21798757 17.87397766 118.40390015 C18.28107971 117.83365112 18.68818176 117.2634021 19.10762024 116.6758728 C25.81637798 107.28852681 32.58870547 97.94660044 39.35835266 88.6031189 C45.11483078 80.6525099 50.82067975 72.67112109 56.45869446 64.63607788 C60.9264693 58.29403137 65.52653353 52.05257653 70.16670227 45.83578491 C70.99246765 44.72481445 70.99246765 44.72481445 71.83491516 43.59140015 C72.31364075 42.95073608 72.79236633 42.31007202 73.28559875 41.6499939 C75.96852211 37.87900017 78.50842779 34.01359225 81.06147766 30.15390015 C80.01213547 30.14803391 78.96279327 30.14216766 77.88165283 30.13612366 C67.97971859 30.07884453 58.07800286 30.00605569 48.17629147 29.91818523 C43.08603443 29.8735086 37.99585694 29.83424642 32.9054718 29.8074646 C27.99051198 29.78140475 23.07585868 29.74098316 18.16108894 29.69071388 C16.28851199 29.67406334 14.41588204 29.66253779 12.5432415 29.65628624 C9.91479945 29.64662544 7.28713837 29.61854277 4.65888977 29.58627319 C3.88924393 29.58770828 3.11959808 29.58914337 2.32662964 29.59062195 C-3.73246489 29.4858108 -8.22019772 28.06407421 -13.25102234 24.52890015 C-16.16378082 20.42946228 -17.36520735 15.94451823 -16.59867859 10.9312439 C-15.0094297 5.90018972 -12.69579914 3.63164848 -7.93852234 1.15390015 C-4.99587414 0.17301741 -3.06804897 0.01928462 0 0 Z " fill="#000000" transform="translate(467.9385223388672,18.846099853515625)"/>
<path d="M0 0 C3.86270102 0.80171466 3.86270102 0.80171466 7.796875 1.2265625 C8.81007813 1.40058594 9.82328125 1.57460937 10.8671875 1.75390625 C11.3621875 2.74390625 11.3621875 2.74390625 11.8671875 3.75390625 C13.59647499 4.6096054 15.35187786 5.41272909 17.1171875 6.19140625 C31.58258001 13.28633686 42.42082734 24.98099755 48.8671875 39.75390625 C48.8671875 40.41390625 48.8671875 41.07390625 48.8671875 41.75390625 C49.5271875 42.08390625 50.1871875 42.41390625 50.8671875 42.75390625 C51.46142578 44.48461914 51.46142578 44.48461914 51.9375 46.7265625 C52.11152344 47.54447266 52.28554688 48.36238281 52.46484375 49.20507812 C52.63886719 50.06681641 52.81289063 50.92855469 52.9921875 51.81640625 C53.26482422 53.0684082 53.26482422 53.0684082 53.54296875 54.34570312 C56.43240539 68.28234676 56.43240539 68.28234676 53.1796875 73.56640625 C50.73279833 76.93914537 49.62513981 78.08775849 45.8671875 79.75390625 C42.52370559 80.17512593 39.2103195 80.13289257 35.84448242 80.09448242 C34.83913452 80.0949205 33.83378662 80.09535858 32.79797363 80.09580994 C29.48100238 80.09372297 26.16453902 80.07039568 22.84765625 80.046875 C20.54551978 80.04127873 18.24337973 80.03700878 15.9412384 80.03401184 C9.88638418 80.02256555 3.83174635 79.99309994 -2.22302246 79.9598999 C-8.40320916 79.92919455 -14.58343086 79.91550549 -20.76367188 79.90039062 C-32.88681375 79.86823026 -45.00979512 79.81703628 -57.1328125 79.75390625 C-56.35865914 81.66588763 -55.57892376 83.57560944 -54.796875 85.484375 C-54.3632666 86.54809326 -53.9296582 87.61181152 -53.48291016 88.70776367 C-49.20355853 98.36300241 -42.22493333 103.45904946 -32.76171875 107.85546875 C-22.40043596 111.59461633 -9.1875774 111.15616759 0.8671875 106.75390625 C6.45736525 104.10444385 11.37678263 100.79891047 16.23828125 96.98828125 C20.14988365 94.02409334 24.12573827 94.18716737 28.8671875 94.75390625 C33.78342778 97.12098491 36.05321277 99.61431118 37.8671875 104.75390625 C38.65405058 109.3876555 37.90247179 112.24224308 35.5546875 116.19140625 C29.04379301 125.15722818 16.58612401 133.49946461 5.57421875 135.2890625 C4.68089844 135.44246094 3.78757812 135.59585938 2.8671875 135.75390625 C2.5371875 136.41390625 2.2071875 137.07390625 1.8671875 137.75390625 C-19.77940236 141.18987289 -39.51291973 138.08638821 -57.90234375 125.921875 C-60.07532026 124.28196258 -62.11636848 122.58170166 -64.1328125 120.75390625 C-64.74253906 120.2125 -65.35226562 119.67109375 -65.98046875 119.11328125 C-78.40853165 107.4227078 -86.10306134 90.79160718 -87.1328125 73.75390625 C-87.18566406 72.88507813 -87.23851562 72.01625 -87.29296875 71.12109375 C-87.91461973 50.84986604 -80.58807611 32.98448381 -66.82421875 18.2890625 C-48.40404249 0.59480452 -24.57536083 -4.98661263 0 0 Z M-49.52734375 39.7265625 C-53.60763733 44.87905001 -55.85301379 50.3549127 -57.1328125 56.75390625 C-30.0728125 56.75390625 -3.0128125 56.75390625 24.8671875 56.75390625 C23.10657225 46.19021477 17.48280956 38.97322185 8.8671875 32.75390625 C-10.42869808 21.15867225 -33.7175528 23.19321132 -49.52734375 39.7265625 Z " fill="#000000" transform="translate(679.1328125,65.24609375)"/>
<path d="M0 0 C1.2578125 1.26171875 1.2578125 1.26171875 1.2578125 3.26171875 C2.7428125 3.75671875 2.7428125 3.75671875 4.2578125 4.26171875 C5.83807688 6.17046505 7.24461435 8.03311046 8.6328125 10.07421875 C9.03056885 10.6559082 9.4283252 11.23759766 9.83813477 11.83691406 C19.11522694 25.81593853 20.57939596 39.69087389 20.59375 55.9921875 C20.60018636 57.71373096 20.60691533 59.43527334 20.61392212 61.15681458 C20.62584544 64.74999531 20.62960762 68.3430802 20.62841797 71.9362793 C20.62821404 76.53291531 20.65561401 81.12893822 20.68996239 85.72542858 C20.71221921 89.2745495 20.71625603 92.8235219 20.71519852 96.37270546 C20.71755253 98.06753991 20.72636485 99.76237857 20.74186325 101.45714378 C20.76151729 103.82627774 20.7556906 106.19407577 20.74365234 108.56323242 C20.75489136 109.25687897 20.76613037 109.95052551 20.77770996 110.66519165 C20.7137814 115.63032264 19.36375797 118.43854167 16.2578125 122.26171875 C11.8345724 125.27756427 7.5258613 126.1770168 2.2578125 125.26171875 C-2.5881025 123.46622036 -5.51183044 120.92981302 -7.7421875 116.26171875 C-8.12745667 113.12168884 -8.12745667 113.12168884 -8.14282227 109.55053711 C-8.15329086 108.56886063 -8.15329086 108.56886063 -8.16397095 107.56735229 C-8.18389866 105.41195661 -8.18344743 103.25704204 -8.18359375 101.1015625 C-8.19538028 99.59044626 -8.20874761 98.07934161 -8.22361755 96.56825256 C-8.25977919 92.58953753 -8.27998568 88.61092493 -8.29516602 84.63208008 C-8.31998721 78.28994551 -8.36024864 71.94803791 -8.41706657 65.60611153 C-8.43317704 63.40840758 -8.4371544 61.21092355 -8.44007874 59.01316833 C-8.50445328 46.39560288 -8.78193302 33.17938815 -17.53125 23.2265625 C-25.25969556 15.97537155 -34.12735277 12.91342643 -44.6796875 13.11328125 C-53.56016942 13.75240684 -62.47844482 17.44241441 -68.6171875 23.94921875 C-74.72199604 31.55143315 -76.8912617 40.37415295 -76.82397461 49.96044922 C-76.81937477 50.93954254 -76.81937477 50.93954254 -76.81468201 51.93841553 C-76.8075561 53.34886799 -76.79818155 54.75931052 -76.78678703 56.16973495 C-76.76931342 58.40679332 -76.75907087 60.64377942 -76.75086975 62.88088989 C-76.72649195 69.23918488 -76.6909321 75.59738242 -76.64624023 81.95556641 C-76.61935947 85.85166916 -76.60238076 89.74771587 -76.59137154 93.6438942 C-76.58519029 95.12298783 -76.57522107 96.60207094 -76.56129265 98.08111191 C-76.54193208 100.15554549 -76.53516049 102.22968702 -76.53100586 104.30419922 C-76.51981972 106.0702803 -76.51981972 106.0702803 -76.50840759 107.87203979 C-76.93300527 114.02847057 -78.331225 118.85075625 -82.7421875 123.26171875 C-86.79717665 125.62712909 -91.14831043 125.96779853 -95.7421875 125.26171875 C-99.39652971 123.91767639 -102.10387203 122.02769732 -104.6171875 119.01171875 C-107.57046421 111.7925979 -106.88868797 103.4574139 -106.875 95.79296875 C-106.87595673 94.59925659 -106.87691345 93.40554443 -106.87789917 92.17565918 C-106.87857775 89.65421496 -106.87674596 87.13276896 -106.87255859 84.61132812 C-106.86724376 80.80204207 -106.87249498 76.99287598 -106.87890625 73.18359375 C-106.89680153 22.98075844 -106.89680153 22.98075844 -88.7421875 3.26171875 C-83.33600202 -2.01407635 -77.30763588 -5.71723665 -70.6171875 -9.11328125 C-69.96049072 -9.447229 -69.30379395 -9.78117676 -68.62719727 -10.12524414 C-45.81161803 -21.19830651 -19.45807504 -14.85815353 0 0 Z " fill="#000000" transform="translate(849.7421875,78.73828125)"/>
<path d="M0 0 C1.69904732 -0.00810448 1.69904732 -0.00810448 3.43241882 -0.01637268 C7.15882878 -0.02883195 10.88446206 -0.01238855 14.61083984 0.00561523 C17.2082015 0.0054602 19.80556339 0.00397056 22.40292358 0.00120544 C27.83822765 -0.00017723 33.27324753 0.01192252 38.70849609 0.03515625 C44.9820577 0.06178871 51.25524948 0.06350216 57.52884829 0.05176789 C63.58053046 0.04097143 69.63204394 0.04729244 75.68372726 0.06132317 C78.25214627 0.06583717 80.82057614 0.06617492 83.38899612 0.06225777 C86.97700534 0.0593465 90.56441083 0.07584875 94.15234375 0.09765625 C95.74218834 0.09090378 95.74218834 0.09090378 97.364151 0.08401489 C104.51090668 0.15616137 108.93470578 1.10128505 114.25927734 6.18920898 C116.8306467 10.08299687 117.8906044 12.84587611 117.44677734 17.50170898 C116.15716093 21.71747257 114.47194957 24.6868285 111.00927734 27.43920898 C105.40171374 29.76429633 99.96344957 29.63476286 93.98974609 29.59936523 C93.08678299 29.59795029 92.18381989 29.59653534 91.25349426 29.59507751 C88.38038771 29.58949722 85.50736019 29.57694833 82.63427734 29.56420898 C80.68180451 29.55919144 78.72933046 29.55462898 76.77685547 29.55053711 C72.00013249 29.53953424 67.2234683 29.52228316 62.44677734 29.50170898 C62.45046452 30.24862314 62.45415169 30.9955373 62.45795059 31.76508522 C62.54630559 49.94299628 62.61248887 68.12086446 62.65402603 86.29894447 C62.67464726 95.08975564 62.70275939 103.88042344 62.74853516 112.67114258 C62.78841645 120.33355155 62.81421336 127.99585668 62.82313132 135.65836656 C62.82834391 139.71528311 62.840586 143.77190261 62.86969757 147.82872391 C62.89688727 151.64874376 62.90521528 155.46834472 62.89920807 159.28845215 C62.90030673 160.68887993 62.90823984 162.089322 62.92359924 163.48966599 C63.0602899 176.59709538 63.0602899 176.59709538 58.44677734 181.50170898 C54.52529536 184.94785981 50.89367096 185.93453912 45.64208984 185.83764648 C41.60632884 185.22007452 38.23546358 183.46971208 35.44677734 180.50170898 C32.12392854 173.53876735 31.99142234 167.24617508 31.97021484 159.61108398 C31.95463531 158.38891174 31.93905579 157.1667395 31.92300415 155.90753174 C31.87566826 152.02226357 31.84777673 148.13717345 31.82177734 144.25170898 C31.78525144 140.35208765 31.74462864 136.45256642 31.6991272 132.55303955 C31.67196327 130.13134636 31.65058494 127.70957988 31.6355896 125.28778076 C31.62532745 124.19274231 31.61506531 123.09770386 31.60449219 121.96948242 C31.59799652 121.00766052 31.59150085 120.04583862 31.58480835 119.05487061 C31.45881379 116.72434728 31.10625605 114.7328748 30.44677734 112.50170898 C30.77677734 112.50170898 31.10677734 112.50170898 31.44677734 112.50170898 C31.46991396 102.10555047 31.48769919 91.70939805 31.49858952 81.31321907 C31.50381544 76.48622862 31.51090786 71.65925573 31.5222168 66.83227539 C31.53305594 62.1768565 31.53905637 57.52145455 31.54165459 52.86602402 C31.54350697 51.08696094 31.54712405 49.30789882 31.5525074 47.52884293 C31.55973144 45.04337791 31.5607677 42.55798353 31.56030273 40.07250977 C31.56569565 38.96120697 31.56569565 38.96120697 31.57119751 37.82745361 C31.62682929 34.03878854 31.62682929 34.03878854 30.44677734 30.50170898 C29.24142334 30.48712646 28.03606934 30.47254395 26.79418945 30.45751953 C22.30056851 30.39932574 17.80743763 30.32209451 13.31420898 30.23925781 C11.37353499 30.20610739 9.43276688 30.17804498 7.49194336 30.15527344 C4.69392987 30.12154514 1.89677125 30.06922079 -0.90087891 30.01342773 C-2.19192284 30.00384285 -2.19192284 30.00384285 -3.50904846 29.99406433 C-9.9710714 29.8381374 -14.90341078 28.8028614 -19.92822266 24.43920898 C-23.64368017 20.00924041 -22.97062731 15.0403476 -22.55322266 9.50170898 C-21.18206177 5.47392388 -19.79917089 4.65331056 -16.15029907 2.40415955 C-10.84578059 -0.15788809 -5.79882082 -0.05309744 0 0 Z " fill="#010101" transform="translate(43.55322265625,18.498291015625)"/>
<path d="M0 0 C3.75944609 1.40043111 6.43920061 3.25226748 8.875 6.5 C10.86518057 10.92262348 11.12938957 14.6505756 11.14717102 19.50140381 C11.15084771 20.15254536 11.1545244 20.80368691 11.1583125 21.47456002 C11.16931808 23.65459754 11.17318783 25.83458734 11.17700195 28.01464844 C11.18326894 29.57859447 11.18991595 31.14253901 11.19691467 32.70648193 C11.21792851 37.84076913 11.22831417 42.97505653 11.23828125 48.109375 C11.24232973 49.87862412 11.24644668 51.64787308 11.25063133 53.41712189 C11.26967667 61.72943705 11.2839094 70.04174337 11.2922433 78.35407615 C11.30201535 87.94186613 11.32833674 97.52942522 11.36874419 107.11713386 C11.39892351 114.53299139 11.41371388 121.94878281 11.41702431 129.36470056 C11.41937261 133.79159563 11.42830435 138.21824386 11.45348549 142.64507294 C11.47680329 146.81152911 11.48098468 150.97757654 11.47072411 155.14408112 C11.47022954 156.66944236 11.47652652 158.19482398 11.49028015 159.72012329 C11.61382347 174.23875471 11.61382347 174.23875471 7 181 C3.11072935 184.2946485 -0.7216381 185.73175589 -5.94140625 185.45703125 C-10.4056679 184.46591434 -14.66287494 182.04527353 -17.1875 178.18359375 C-20.18741184 170.12133068 -19.10207931 160.0862945 -18.96337891 151.56176758 C-18.82550221 147.65417212 -18.82550221 147.65417212 -20 144 C-19.34 144 -18.68 144 -18 144 C-18.16371094 143.19135498 -18.32742188 142.38270996 -18.49609375 141.54956055 C-19.08627704 137.39225681 -19.10647335 133.39765434 -19.0625 129.20703125 C-19.05871338 128.37918625 -19.05492676 127.55134125 -19.05102539 126.69841003 C-19.0388701 124.06971886 -19.02023328 121.44114064 -19 118.8125 C-18.97343083 115.3398468 -18.95343971 111.86724765 -18.9375 108.39453125 C-18.92920166 107.59763382 -18.92090332 106.80073639 -18.91235352 105.97969055 C-18.8978144 102.71732039 -18.96053691 100.11838926 -20 97 C-19.505 96.505 -19.505 96.505 -19 96 C-18.91091716 93.83467639 -18.89315157 91.66640338 -18.90234375 89.49926758 C-18.90380402 88.81935257 -18.90526428 88.13943756 -18.9067688 87.43891907 C-18.9105859 85.95529779 -18.91671399 84.47168113 -18.92483521 82.98807716 C-18.93759152 80.62759622 -18.94411478 78.26717155 -18.94897461 75.90666199 C-18.96235904 70.03090548 -18.98630734 64.15520085 -19.01037598 58.27947998 C-19.03028237 53.33513866 -19.04586328 48.39081881 -19.05593872 43.44644737 C-19.06232913 41.143606 -19.07484748 38.84085341 -19.08764648 36.53804016 C-19.18571291 9.32586732 -19.18571291 9.32586732 -14 4 C-9.61697029 0.21465616 -5.71044974 -1.09137939 0 0 Z " fill="#000000" transform="translate(430,19)"/>
<path d="M0 0 C3.42747697 3.01202521 4.92300368 5.62905808 5.46122742 10.19517517 C5.47233047 11.49064774 5.48343353 12.7861203 5.49487305 14.12084961 C5.5050647 14.84082626 5.51525635 15.56080292 5.52575684 16.30259705 C5.55597609 18.69009212 5.56519537 21.07718184 5.57421875 23.46484375 C5.59112315 25.1602961 5.60928077 26.85573636 5.62861633 28.55116272 C5.67622835 33.04267415 5.70587792 37.53413743 5.73205566 42.02581787 C5.76115688 46.44375786 5.80830129 50.86149791 5.85351562 55.27929688 C5.9313687 63.15555425 5.98182824 71.031683 6.0171032 78.90823936 C6.04283506 84.25547837 6.09075829 89.60198636 6.15537167 94.94889355 C6.19526944 98.44679064 6.22272799 101.94471847 6.24765968 105.44275093 C6.26205605 107.08742275 6.28165104 108.73205864 6.30685997 110.37660027 C6.54449899 126.24838098 6.54449899 126.24838098 3.0625 132.8125 C-0.50121561 136.28712271 -3.21344056 137.64672505 -8.1875 138.125 C-13.49189804 137.68296683 -17.06802271 136.01071103 -20.61260986 131.84283447 C-22.60690581 127.28141191 -22.3850882 122.9428465 -22.38574219 118.01464844 C-22.39754013 116.92622147 -22.40933807 115.83779449 -22.42149353 114.71638489 C-22.45678079 111.11817691 -22.47087009 107.52022551 -22.484375 103.921875 C-22.50376743 101.41708486 -22.52431198 98.9123034 -22.54595947 96.40753174 C-22.58832932 91.15534034 -22.62135532 85.90317961 -22.64599609 80.65087891 C-22.67445316 74.59725593 -22.71667799 68.5438612 -22.76723552 62.49038482 C-22.81600677 56.64971294 -22.85831386 50.80901625 -22.8970108 44.96826935 C-22.91350285 42.49163329 -22.93106481 40.01500412 -22.94972992 37.53838348 C-22.97431933 34.0682365 -22.99166607 30.5981291 -23.00683594 27.12792969 C-23.01506882 26.11150894 -23.0233017 25.0950882 -23.03178406 24.04786682 C-23.08009089 6.97000699 -23.08009089 6.97000699 -19.0625 2.8125 C-18.54945313 2.255625 -18.03640625 1.69875 -17.5078125 1.125 C-12.95448218 -2.68076863 -5.1968738 -2.10086388 0 0 Z " fill="#000000" transform="translate(911.9375,66.1875)"/>
<path d="M0 0 C4.03099989 2.63335934 6.39249542 5.43977461 7.91015625 10.08203125 C8.69929026 15.47773501 8.28903011 19.97568245 5.23046875 24.57421875 C2.28170407 27.94174291 -0.8856954 29.70361994 -5.296875 30.4609375 C-9.9309275 30.705666 -13.67769198 30.04616253 -17.58203125 27.4765625 C-21.41663584 23.93004997 -22.86643011 19.64592674 -23.58984375 14.58203125 C-22.8662279 9.51672033 -21.40462428 5.27401176 -17.6171875 1.6875 C-12.4099247 -1.79631885 -5.77404343 -2.53626207 0 0 Z " fill="#020102" transform="translate(911.08984375,27.91796875)"/>
<path d="M0 0 C1.65 0 3.3 0 5 0 C5 0.33 5 0.66 5 1 C3.35 1 1.7 1 0 1 C0 0.67 0 0.34 0 0 Z " fill="#0B0C0B" transform="translate(522,49)"/>
<path d="M0 0 C1.65 0 3.3 0 5 0 C5 0.33 5 0.66 5 1 C3.35 1 1.7 1 0 1 C0 0.67 0 0.34 0 0 Z " fill="#0F0E0F" transform="translate(498,49)"/>
<path d="M0 0 C4 1 4 1 4 1 Z " fill="#121213" transform="translate(472,49)"/>
<path d="M0 0 C4 1 4 1 4 1 Z " fill="#121212" transform="translate(467,49)"/>
<path d="" fill="#131214" transform="translate(0,0)"/>
<path d="" fill="#141314" transform="translate(0,0)"/>
<path d="M0 0 C3 1 3 1 3 1 Z " fill="#0B0B0B" transform="translate(542,49)"/>
<path d="M0 0 C3 1 3 1 3 1 Z " fill="#0B0C0C" transform="translate(538,49)"/>
<path d="M0 0 C3 1 3 1 3 1 Z " fill="#0E0E0E" transform="translate(505,49)"/>
<path d="M0 0 C3 1 3 1 3 1 Z " fill="#111212" transform="translate(477,49)"/>
<path d="M0 0 C3 1 3 1 3 1 Z " fill="#0F0F10" transform="translate(125,49)"/>
<path d="" fill="#1B1A1C" transform="translate(0,0)"/>
<path d="M0 0 C2 1 2 1 2 1 Z " fill="#151516" transform="translate(329,174)"/>
<path d="M0 0 C2 1 2 1 2 1 Z " fill="#131313" transform="translate(192,171)"/>
<path d="" fill="#19191A" transform="translate(0,0)"/>
<path d="" fill="#151718" transform="translate(0,0)"/>
<path d="" fill="#0F0F11" transform="translate(0,0)"/>
<path d="" fill="#0D100F" transform="translate(0,0)"/>
<path d="" fill="#131315" transform="translate(0,0)"/>
<path d="M0 0 C2 1 2 1 2 1 Z " fill="#181516" transform="translate(634,67)"/>
<path d="M0 0 C2 1 2 1 2 1 Z " fill="#0C0C0C" transform="translate(533,49)"/>
<path d="M0 0 C2 1 2 1 2 1 Z " fill="#0D0E0E" transform="translate(517,49)"/>
<path d="M0 0 C2 1 2 1 2 1 Z " fill="#0E0E0E" transform="translate(509,49)"/>
<path d="M0 0 C2 1 2 1 2 1 Z " fill="#11100F" transform="translate(493,49)"/>
<path d="M0 0 C2 1 2 1 2 1 Z " fill="#100F11" transform="translate(489,49)"/>
<path d="M0 0 C2 1 2 1 2 1 Z " fill="#101112" transform="translate(485,49)"/>
<path d="M0 0 C2 1 2 1 2 1 Z " fill="#111111" transform="translate(482,49)"/>
<path d="M0 0 C2 1 2 1 2 1 Z " fill="#121312" transform="translate(141,49)"/>
<path d="M0 0 C2 1 2 1 2 1 Z " fill="#121113" transform="translate(133,49)"/>
<path d="M0 0 C2 1 2 1 2 1 Z " fill="#111111" transform="translate(129,49)"/>
<path d="M0 0 C2 1 2 1 2 1 Z " fill="#101110" transform="translate(117,49)"/>
<path d="M0 0 C2 1 2 1 2 1 Z " fill="#111112" transform="translate(61,49)"/>
<path d="M0 0 C2 1 2 1 2 1 Z " fill="#111112" transform="translate(58,49)"/>
<path d="M0 0 C2 1 2 1 2 1 Z " fill="#262428" transform="translate(27,19)"/>
<path d="" fill="#1C191A" transform="translate(0,0)"/>
<path d="" fill="#1A1718" transform="translate(0,0)"/>
<path d="" fill="#19171A" transform="translate(0,0)"/>
<path d="" fill="#1B1A1A" transform="translate(0,0)"/>
<path d="" fill="#191819" transform="translate(0,0)"/>
<path d="" fill="#171517" transform="translate(0,0)"/>
<path d="" fill="#141413" transform="translate(0,0)"/>
<path d="" fill="#151514" transform="translate(0,0)"/>
<path d="" fill="#161415" transform="translate(0,0)"/>
<path d="" fill="#161616" transform="translate(0,0)"/>
<path d="" fill="#171617" transform="translate(0,0)"/>
<path d="" fill="#181717" transform="translate(0,0)"/>
<path d="" fill="#121112" transform="translate(0,0)"/>
<path d="" fill="#161615" transform="translate(0,0)"/>
<path d="" fill="#161919" transform="translate(0,0)"/>
<path d="" fill="#0F1012" transform="translate(0,0)"/>
<path d="" fill="#131213" transform="translate(0,0)"/>
<path d="" fill="#141515" transform="translate(0,0)"/>
<path d="" fill="#171515" transform="translate(0,0)"/>
<path d="" fill="#111613" transform="translate(0,0)"/>
<path d="" fill="#151414" transform="translate(0,0)"/>
<path d="" fill="#131415" transform="translate(0,0)"/>
<path d="" fill="#161515" transform="translate(0,0)"/>
<path d="" fill="#151517" transform="translate(0,0)"/>
<path d="" fill="#151513" transform="translate(0,0)"/>
<path d="" fill="#151713" transform="translate(0,0)"/>
<path d="" fill="#141514" transform="translate(0,0)"/>
<path d="" fill="#110E10" transform="translate(0,0)"/>
<path d="" fill="#121112" transform="translate(0,0)"/>
<path d="" fill="#121111" transform="translate(0,0)"/>
<path d="" fill="#111111" transform="translate(0,0)"/>
<path d="" fill="#111211" transform="translate(0,0)"/>
<path d="" fill="#121314" transform="translate(0,0)"/>
<path d="" fill="#0F0F0F" transform="translate(0,0)"/>
<path d="" fill="#131414" transform="translate(0,0)"/>
<path d="" fill="#111311" transform="translate(0,0)"/>
<path d="" fill="#0E0B0F" transform="translate(0,0)"/>
<path d="" fill="#151514" transform="translate(0,0)"/>
<path d="" fill="#161715" transform="translate(0,0)"/>
<path d="" fill="#151615" transform="translate(0,0)"/>
<path d="" fill="#111310" transform="translate(0,0)"/>
<path d="" fill="#141513" transform="translate(0,0)"/>
<path d="" fill="#111012" transform="translate(0,0)"/>
<path d="" fill="#121111" transform="translate(0,0)"/>
<path d="" fill="#131214" transform="translate(0,0)"/>
<path d="" fill="#151413" transform="translate(0,0)"/>
<path d="" fill="#11110F" transform="translate(0,0)"/>
<path d="" fill="#0F100F" transform="translate(0,0)"/>
<path d="" fill="#131315" transform="translate(0,0)"/>
<path d="" fill="#121212" transform="translate(0,0)"/>
<path d="" fill="#0D0E0F" transform="translate(0,0)"/>
<path d="" fill="#141211" transform="translate(0,0)"/>
<path d="" fill="#141516" transform="translate(0,0)"/>
<path d="" fill="#0F1011" transform="translate(0,0)"/>
<path d="" fill="#131313" transform="translate(0,0)"/>
<path d="" fill="#151314" transform="translate(0,0)"/>
<path d="" fill="#161615" transform="translate(0,0)"/>
<path d="" fill="#161616" transform="translate(0,0)"/>
<path d="" fill="#161717" transform="translate(0,0)"/>
<path d="" fill="#141515" transform="translate(0,0)"/>
<path d="" fill="#161515" transform="translate(0,0)"/>
<path d="" fill="#181916" transform="translate(0,0)"/>
<path d="" fill="#161515" transform="translate(0,0)"/>
<path d="" fill="#111314" transform="translate(0,0)"/>
<path d="" fill="#171618" transform="translate(0,0)"/>
<path d="" fill="#181717" transform="translate(0,0)"/>
<path d="" fill="#141315" transform="translate(0,0)"/>
<path d="" fill="#121112" transform="translate(0,0)"/>
<path d="" fill="#0F1110" transform="translate(0,0)"/>
<path d="" fill="#141617" transform="translate(0,0)"/>
<path d="" fill="#151414" transform="translate(0,0)"/>
<path d="" fill="#1B181C" transform="translate(0,0)"/>
<path d="" fill="#191817" transform="translate(0,0)"/>
<path d="" fill="#161817" transform="translate(0,0)"/>
<path d="" fill="#18191A" transform="translate(0,0)"/>
<path d="" fill="#1D1E1B" transform="translate(0,0)"/>
<path d="" fill="#20211F" transform="translate(0,0)"/>
<path d="" fill="#1B1B1A" transform="translate(0,0)"/>
<path d="" fill="#0F0D0E" transform="translate(0,0)"/>
<path d="" fill="#0C0B0B" transform="translate(0,0)"/>
<path d="" fill="#0C0C0C" transform="translate(0,0)"/>
<path d="" fill="#0B0B0D" transform="translate(0,0)"/>
<path d="" fill="#0F1010" transform="translate(0,0)"/>
<path d="" fill="#121213" transform="translate(0,0)"/>
<path d="" fill="#121213" transform="translate(0,0)"/>
<path d="" fill="#111212" transform="translate(0,0)"/>
<path d="" fill="#0F100F" transform="translate(0,0)"/>
<path d="" fill="#100F10" transform="translate(0,0)"/>
<path d="" fill="#101010" transform="translate(0,0)"/>
<path d="" fill="#111010" transform="translate(0,0)"/>
<path d="" fill="#111212" transform="translate(0,0)"/>
<path d="" fill="#111111" transform="translate(0,0)"/>
<path d="" fill="#101011" transform="translate(0,0)"/>
<path d="" fill="#171615" transform="translate(0,0)"/>
<path d="" fill="#161818" transform="translate(0,0)"/>
<path d="" fill="#242526" transform="translate(0,0)"/>
<path d="" fill="#1E201F" transform="translate(0,0)"/>
<path d="" fill="#232323" transform="translate(0,0)"/>
</svg>
